<svg width="256" height="256" viewBox="0 0 256 256" fill="none" xmlns="http://www.w3.org/2000/svg" role="img" aria-labelledby="title desc">
  <title id="title">LiveCanvas AI Bridge</title>
  <desc id="desc">A gradient AI bridge mark with connected nodes and spark accents.</desc>
  <rect width="256" height="256" rx="56" fill="#101424"/>
  <rect x="10" y="10" width="236" height="236" rx="48" fill="url(#bg)"/>
  <path d="M58 158c18-28 43-43 74-43s56 15 74 43" stroke="#28D5EA" stroke-width="15" stroke-linecap="round"/>
  <path d="M78 162c14-18 32-27 54-27s40 9 54 27" stroke="#FF3D9A" stroke-width="11" stroke-linecap="round" opacity=".95"/>
  <circle cx="58" cy="158" r="18" fill="#28D5EA"/>
  <circle cx="198" cy="158" r="18" fill="#FF3D9A"/>
  <circle cx="128" cy="114" r="20" fill="#FFFFFF"/>
  <path d="M128 78v24M128 126v24M92 114h24M140 114h24" stroke="#101424" stroke-width="10" stroke-linecap="round"/>
  <path d="M190 59l5 15 15 5-15 5-5 15-5-15-15-5 15-5 5-15Z" fill="#28D5EA"/>
  <path d="M65 56l4 12 12 4-12 4-4 12-4-12-12-4 12-4 4-12Z" fill="#FF3D9A"/>
  <path d="M88 194h80" stroke="#FFFFFF" stroke-width="12" stroke-linecap="round" opacity=".9"/>
  <path d="M104 213h48" stroke="#FFFFFF" stroke-width="10" stroke-linecap="round" opacity=".65"/>
  <defs>
    <linearGradient id="bg" x1="32" y1="28" x2="230" y2="232" gradientUnits="userSpaceOnUse">
      <stop stop-color="#243D51"/>
      <stop offset=".48" stop-color="#171B33"/>
      <stop offset="1" stop-color="#55213F"/>
    </linearGradient>
  </defs>
</svg>
